<svg width="24" height="27" viewBox="0 0 24 27" fill="none" xmlns="http://www.w3.org/2000/svg">
<path d="M23.76 19.0789L21.1281 14.2199V9.16071C21.1281 4.10948 17.0186 0 11.9674 0C6.91614 0 2.80665 4.10948 2.80665 9.16071V14.2199L0.174635 19.0789C0.0552756 19.2992 -0.0047985 19.5468 0.000299433 19.7973C0.00539736 20.0478 0.0754924 20.2927 0.203716 20.508C0.33194 20.7233 0.513894 20.9016 0.731749 21.0254C0.949605 21.1492 1.19589 21.2143 1.44647 21.2143H6.68585C6.67151 21.3732 6.66374 21.5337 6.66374 21.6964C6.66374 23.103 7.2225 24.452 8.21712 25.4466C9.21173 26.4412 10.5607 27 11.9673 27C13.3739 27 14.7229 26.4412 15.7175 25.4466C16.7121 24.452 17.2709 23.103 17.2709 21.6964C17.2709 21.5337 17.2631 21.3732 17.2488 21.2143H22.4881C22.7387 21.2143 22.985 21.1491 23.2028 21.0253C23.4206 20.9015 23.6025 20.7232 23.7307 20.5079C23.8589 20.2927 23.929 20.0478 23.9341 19.7973C23.9392 19.5468 23.8791 19.2992 23.7598 19.0789H23.76ZM15.3424 21.6964C15.3427 22.1602 15.2475 22.6191 15.0626 23.0445C14.8778 23.4699 14.6072 23.8526 14.2678 24.1687C13.9284 24.4848 13.5276 24.7276 13.0902 24.8819C12.6528 25.0362 12.1883 25.0987 11.7257 25.0655C11.263 25.0323 10.8122 24.9041 10.4014 24.6889C9.99053 24.4737 9.62843 24.1761 9.33771 23.8147C9.04698 23.4533 8.83386 23.0359 8.71165 22.5885C8.58943 22.1411 8.56075 21.6733 8.62738 21.2143H15.3073C15.3305 21.374 15.3422 21.5351 15.3424 21.6964ZM2.25593 19.2857L4.73523 14.7087V9.16071C4.73523 7.24263 5.49718 5.40311 6.85347 4.04682C8.20976 2.69053 10.0493 1.92857 11.9674 1.92857C13.8855 1.92857 15.725 2.69053 17.0813 4.04682C18.4376 5.40311 19.1995 7.24263 19.1995 9.16071V14.7087L21.6787 19.2857H2.25593Z" fill="#727374"/>
</svg>
