<svg width="29" height="29" viewBox="0 0 29 29" fill="none" xmlns="http://www.w3.org/2000/svg">
<path d="M26.5833 14.5C26.5833 12.9132 26.2707 11.3419 25.6635 9.8759C25.0563 8.40988 24.1662 7.07782 23.0442 5.95578C21.9221 4.83374 20.5901 3.94369 19.1241 3.33645C17.658 2.7292 16.0868 2.41666 14.5 2.41666C11.2953 2.41666 8.22182 3.68972 5.95575 5.95578C3.68969 8.22185 2.41663 11.2953 2.41663 14.5C2.41663 17.7047 3.68969 20.7781 5.95575 23.0442C8.22182 25.3103 11.2953 26.5833 14.5 26.5833C17.7047 26.5833 20.7781 25.3103 23.0442 23.0442C25.3102 20.7781 26.5833 17.7047 26.5833 14.5ZM24.082 13.2917H20.5416C20.3423 10.4498 19.3687 7.71683 17.7262 5.38916C19.4136 5.98845 20.9014 7.04466 22.0236 8.44001C23.1459 9.83536 23.8585 11.515 24.082 13.2917ZM10.9716 15.7083H18.125C17.8157 18.6936 16.5433 21.4972 14.5 23.6954C12.458 21.5063 11.2147 18.6921 10.9716 15.7083ZM10.9716 13.2917C11.253 10.3214 12.4912 7.52273 14.5 5.31666C16.5598 7.49905 17.8351 10.3047 18.125 13.2917H10.9716ZM11.4066 5.35291C9.7555 7.69348 8.76618 10.436 8.54288 13.2917H4.91788C5.14614 11.493 5.87561 9.79489 7.02299 8.39111C8.17038 6.98733 9.68941 5.93451 11.4066 5.35291ZM4.91788 15.7083H8.54288C8.74188 18.5615 9.72448 21.3044 11.3825 23.635C9.67143 23.0505 8.15861 21.9979 7.01587 20.5967C5.87312 19.1955 5.14627 17.5019 4.91788 15.7083ZM17.6658 23.6229C19.3193 21.2916 20.3128 18.5573 20.5416 15.7083H24.1062C23.8777 17.4969 23.1535 19.186 22.0154 20.5846C20.8773 21.9832 19.3706 23.0356 17.6658 23.6229Z" fill="#636466"/>
</svg>
