<svg width="36" height="26" viewBox="0 0 36 26" fill="none" xmlns="http://www.w3.org/2000/svg">
<path fill-rule="evenodd" clip-rule="evenodd" d="M11.6999 12.6C15.1806 12.6 17.9999 9.78075 17.9999 6.3C17.9999 2.81925 15.1806 0 11.6999 0C8.21911 0 5.39986 2.81925 5.39986 6.3C5.39986 9.78075 8.21911 12.6 11.6999 12.6ZM16.1999 6.3C16.1999 8.78661 14.1865 10.8 11.6999 10.8C9.21325 10.8 7.19986 8.78661 7.19986 6.3C7.19986 3.81339 9.21325 1.8 11.6999 1.8C14.1865 1.8 16.1999 3.81339 16.1999 6.3Z" fill="#636466"/>
<path fill-rule="evenodd" clip-rule="evenodd" d="M0 25.1999V20.1599C0 16.3295 7.79508 14.3999 11.7 14.3999C14.2976 14.3999 18.6166 15.2537 21.2174 16.953C23.0711 16.4517 25.1042 16.1999 26.55 16.1999C28.2221 16.1999 30.4659 16.5367 32.3183 17.2175C33.2428 17.5575 34.127 18.0035 34.796 18.5816C35.4697 19.1637 36 19.9507 36 20.9399V25.1999H0ZM1.8 20.1599C1.8 19.8742 1.931 19.4836 2.48956 18.976C3.05917 18.4585 3.9359 17.9559 5.04614 17.518C7.2684 16.6414 9.96894 16.1999 11.7 16.1999C13.4311 16.1999 16.1316 16.6414 18.3539 17.518C19.4641 17.9559 20.3408 18.4585 20.9104 18.976C21.469 19.4836 21.6 19.8742 21.6 20.1599V23.3999H1.8V20.1599ZM22.8179 18.4222C24.1791 18.1408 25.5451 17.9999 26.55 17.9999C28.0318 17.9999 30.0631 18.3064 31.6972 18.907C32.5159 19.208 33.1779 19.5623 33.6191 19.9436C34.0558 20.3209 34.2 20.6522 34.2 20.9399V23.3999H23.4V20.1599C23.4 19.5291 23.1886 18.9498 22.8179 18.4222Z" fill="#636466"/>
<path fill-rule="evenodd" clip-rule="evenodd" d="M31.5004 9.45003C31.5004 12.1849 29.2853 14.4 26.5504 14.4C23.8156 14.4 21.6004 12.1849 21.6004 9.45003C21.6004 6.71511 23.8156 4.50003 26.5504 4.50003C29.2853 4.50003 31.5004 6.71511 31.5004 9.45003ZM26.5504 12.6C28.2912 12.6 29.7004 11.1908 29.7004 9.45003C29.7004 7.70925 28.2912 6.30003 26.5504 6.30003C24.8097 6.30003 23.4004 7.70925 23.4004 9.45003C23.4004 11.1908 24.8097 12.6 26.5504 12.6Z" fill="#636466"/>
</svg>
