<svg width="22" height="26" viewBox="0 0 22 26" fill="none" xmlns="http://www.w3.org/2000/svg">
<path d="M17.8442 2C18.5323 2 18.8893 2.05926 19.8265 2.92379C20.7832 3.80669 20.9554 4.49483 20.9955 5.26105C21.038 6.08562 20.7853 7.08704 20.0829 7.87072L6.75343 22.5526C6.53656 22.7708 6.49069 22.7588 6.34597 22.8066L2.08116 23.9808C1.46725 24.1181 0.890882 23.4989 1.01767 22.8098L2.08408 18.1123C2.12578 17.9589 2.13955 17.8748 2.31471 17.6635C6.77554 12.7501 11.1542 7.74439 15.698 2.92379C16.2907 2.31053 17.1565 2 17.8442 2ZM17.8442 3.90316C17.4855 3.91051 17.136 4.07359 16.8804 4.3515L3.72644 18.8404L3.07333 21.7165L5.68494 20.9976C10.0824 16.154 14.6178 11.4575 18.8764 6.46597C19.5746 5.62763 19.0616 3.96104 17.9147 3.90408C17.8913 3.90316 17.868 3.9027 17.8442 3.90316Z" fill="#636466"/>
<path d="M1 13V1H11" stroke="#636466" stroke-width="1.5"/>
<path d="M20.9999 13L21.0522 24.9999L11.0523 25.0435" stroke="#636466" stroke-width="1.5"/>
</svg>
