<svg width="6" height="11" viewBox="0 0 6 11" fill="none" xmlns="http://www.w3.org/2000/svg">
<path d="M6 3.15082C5.99998 2.45721 5.7711 1.78299 5.34885 1.23271C4.92659 0.682443 4.33457 0.286876 3.66459 0.10736C2.99462 -0.072155 2.28412 -0.0255862 1.64331 0.239844C1.0025 0.505275 0.467172 0.974733 0.120358 1.57541C0.00112553 1.78222 -0.0311012 2.02791 0.030763 2.25847C0.0926272 2.48903 0.243519 2.68558 0.450263 2.80492C0.657007 2.92426 0.90268 2.95661 1.13327 2.89487C1.36386 2.83312 1.5605 2.68233 1.67994 2.47564C1.79863 2.27056 1.9691 2.10024 2.1743 1.98175C2.37951 1.86326 2.61223 1.80075 2.84919 1.80047C3.20732 1.80047 3.55079 1.94274 3.80403 2.19598C4.05727 2.44922 4.19954 2.79268 4.19954 3.15082C4.19954 3.50895 4.05727 3.85242 3.80403 4.10566C3.55079 4.3589 3.20732 4.50117 2.84919 4.50117H2.84699C2.78916 4.50696 2.73207 4.51863 2.6766 4.53601C2.61595 4.54231 2.55606 4.55456 2.49781 4.5726C2.44824 4.59953 2.40136 4.63114 2.3578 4.66699C2.3061 4.69512 2.25726 4.72821 2.21197 4.76579C2.17149 4.8141 2.13617 4.86651 2.10659 4.92216C2.07378 4.96276 2.04466 5.00619 2.01955 5.05195C1.99999 5.114 1.98706 5.17794 1.98098 5.24272C1.9653 5.29448 1.95458 5.34761 1.94895 5.4014V6.30163L1.95104 6.31185L1.95203 6.75394C1.95265 6.99231 2.04777 7.2207 2.21652 7.38904C2.38528 7.55739 2.6139 7.65194 2.85227 7.65198H2.85446C3.09321 7.65138 3.32195 7.55597 3.49036 7.38674C3.65878 7.2175 3.75307 6.9883 3.7525 6.74955L3.75112 6.15416C4.39889 5.96159 4.96741 5.56551 5.37246 5.02456C5.77752 4.48362 5.99756 3.8266 6 3.15082ZM2.21665 9.2634C2.09025 9.38876 2.00386 9.54878 1.9684 9.72323C1.93293 9.89768 1.94999 10.0787 2.01741 10.2435C2.08482 10.4083 2.19958 10.5493 2.34716 10.6489C2.49474 10.7484 2.66853 10.802 2.84655 10.8028C3.0853 10.8008 3.31421 10.7074 3.48612 10.5417C3.65321 10.3709 3.74678 10.1415 3.74678 9.9026C3.74678 9.66367 3.65321 9.43425 3.48612 9.26347C3.31378 9.10286 3.08697 9.01355 2.8514 9.01354C2.61583 9.01352 2.389 9.10281 2.21665 9.2634Z" fill="#868788"/>
</svg>
